<svg width="50" height="50" viewBox="0 0 50 50" fill="none" xmlns="http://www.w3.org/2000/svg">
<path d="M29.1667 6.81025C29.1667 5.34984 27.9833 4.1665 26.5229 4.1665H23.4792C22.0167 4.1665 20.8333 5.34984 20.8333 6.81025C20.8333 8.01442 20.0083 9.04775 18.8854 9.48942C18.7083 9.56025 18.5312 9.63525 18.3583 9.71025C17.2521 10.1894 15.9375 10.0436 15.0833 9.1915C14.5876 8.69611 13.9154 8.41783 13.2146 8.41783C12.5137 8.41783 11.8416 8.69611 11.3458 9.1915L9.19166 11.3457C8.69627 11.8414 8.41799 12.5136 8.41799 13.2144C8.41799 13.9153 8.69627 14.5874 9.19166 15.0832C10.0458 15.9373 10.1917 17.2498 9.70833 18.3582C9.63239 18.5326 9.55946 18.7083 9.48958 18.8853C9.04791 20.0082 8.01458 20.8332 6.81041 20.8332C5.35 20.8332 4.16666 22.0165 4.16666 23.4769V26.5228C4.16666 27.9832 5.35 29.1665 6.81041 29.1665C8.01458 29.1665 9.04791 29.9915 9.48958 31.1144C9.56041 31.2915 9.63541 31.4686 9.70833 31.6415C10.1896 32.7478 10.0437 34.0623 9.19166 34.9165C8.69627 35.4122 8.41799 36.0844 8.41799 36.7853C8.41799 37.4861 8.69627 38.1583 9.19166 38.654L11.3458 40.8082C11.8416 41.3036 12.5137 41.5818 13.2146 41.5818C13.9154 41.5818 14.5876 41.3036 15.0833 40.8082C15.9375 39.954 17.25 39.8082 18.3583 40.2894C18.5312 40.3665 18.7083 40.4394 18.8854 40.5103C20.0083 40.9519 20.8333 41.9853 20.8333 43.1894C20.8333 44.6498 22.0167 45.8332 23.4771 45.8332H26.5229C27.9833 45.8332 29.1667 44.6498 29.1667 43.1894C29.1667 41.9853 29.9917 40.9519 31.1146 40.5082C31.2917 40.4394 31.4687 40.3665 31.6417 40.2915C32.7479 39.8082 34.0625 39.9561 34.9146 40.8082C35.1601 41.0538 35.4516 41.2486 35.7724 41.3815C36.0932 41.5145 36.4371 41.5829 36.7844 41.5829C37.1316 41.5829 37.4755 41.5145 37.7963 41.3815C38.1172 41.2486 38.4087 41.0538 38.6542 40.8082L40.8083 38.654C41.3037 38.1583 41.582 37.4861 41.582 36.7853C41.582 36.0844 41.3037 35.4122 40.8083 34.9165C39.9542 34.0623 39.8083 32.7498 40.2896 31.6415C40.3667 31.4686 40.4396 31.2915 40.5104 31.1144C40.9521 29.9915 41.9854 29.1665 43.1896 29.1665C44.65 29.1665 45.8333 27.9832 45.8333 26.5228V23.479C45.8333 22.0186 44.65 20.8353 43.1896 20.8353C41.9854 20.8353 40.9521 20.0103 40.5083 18.8873C40.4385 18.7104 40.3656 18.5346 40.2896 18.3603C39.8104 17.254 39.9562 15.9394 40.8083 15.0853C41.3037 14.5895 41.582 13.9173 41.582 13.2165C41.582 12.5157 41.3037 11.8435 40.8083 11.3478L38.6542 9.19359C38.1584 8.69819 37.4863 8.41991 36.7854 8.41991C36.0846 8.41991 35.4124 8.69819 34.9167 9.19359C34.0625 10.0478 32.75 10.1936 31.6417 9.71234C31.4673 9.63569 31.2915 9.56206 31.1146 9.4915C29.9917 9.04775 29.1667 8.01442 29.1667 6.81234V6.81025Z" stroke="url(#paint0_linear_201_280)" stroke-width="4.16667"/>
<path d="M20.3751 20.625C20.3751 19.9288 20.6516 19.2611 21.1439 18.7689C21.6362 18.2766 22.3039 18 23.0001 18H26.9376C27.6338 18 28.3015 18.2766 28.7938 18.7689C29.2861 19.2611 29.5627 19.9288 29.5627 20.625V21.5H20.3751V20.625ZM16 25.4376L24.5379 27.5722C24.677 27.6072 24.8232 27.6072 24.9623 27.5722L33.5002 25.4376V31.1252C33.5002 31.3572 33.408 31.5798 33.2439 31.7439C33.0798 31.908 32.8573 32.0002 32.6252 32.0002H16.875C16.643 32.0002 16.4204 31.908 16.2563 31.7439C16.0922 31.5798 16 31.3572 16 31.1252V25.4376Z" stroke="url(#paint1_linear_201_280)" stroke-width="2" stroke-linecap="round" stroke-linejoin="round"/>
<path d="M33.5002 26.3126V22.375C33.5002 22.1429 33.408 21.9204 33.2439 21.7563C33.0798 21.5922 32.8573 21.5 32.6252 21.5H16.875C16.643 21.5 16.4204 21.5922 16.2563 21.7563C16.0922 21.9204 16 22.1429 16 22.375V26.3126" stroke="url(#paint2_linear_201_280)" stroke-width="2" stroke-linecap="round" stroke-linejoin="round"/>
<path d="M25.8439 24.5625C25.8439 24.8526 25.7286 25.1308 25.5235 25.3359C25.3184 25.541 25.0402 25.6563 24.7501 25.6563C24.46 25.6563 24.1818 25.541 23.9767 25.3359C23.7716 25.1308 23.6563 24.8526 23.6563 24.5625C23.6563 24.2724 23.7716 23.9942 23.9767 23.7891C24.1818 23.584 24.46 23.4688 24.7501 23.4688C25.0402 23.4688 25.3184 23.584 25.5235 23.7891C25.7286 23.9942 25.8439 24.2724 25.8439 24.5625Z" fill="url(#paint3_linear_201_280)"/>
<defs>
<linearGradient id="paint0_linear_201_280" x1="25" y1="4.1665" x2="25" y2="45.8332" gradientUnits="userSpaceOnUse">
<stop stop-color="#9949FF"/>
<stop offset="1" stop-color="#9949FF"/>
</linearGradient>
<linearGradient id="paint1_linear_201_280" x1="24.7501" y1="18" x2="24.7501" y2="32.0002" gradientUnits="userSpaceOnUse">
<stop stop-color="#9949FF"/>
<stop offset="1" stop-color="#9949FF"/>
</linearGradient>
<linearGradient id="paint2_linear_201_280" x1="24.7501" y1="21.5" x2="24.7501" y2="26.3126" gradientUnits="userSpaceOnUse">
<stop stop-color="#9949FF"/>
<stop offset="1" stop-color="#9949FF"/>
</linearGradient>
<linearGradient id="paint3_linear_201_280" x1="24.7501" y1="23.4688" x2="24.7501" y2="25.6563" gradientUnits="userSpaceOnUse">
<stop stop-color="#9949FF"/>
<stop offset="1" stop-color="#9949FF"/>
</linearGradient>
</defs>
</svg>
