<svg width="58" height="51" viewBox="0 0 58 51" fill="none" xmlns="http://www.w3.org/2000/svg">
<g clip-path="url(#clip0_201_275)" filter="url(#filter0_d_201_275)">
<path d="M18.2975 36.8751C17.6856 36.876 17.0947 36.6517 16.6375 36.2451L3.9875 25.0001L17.34 13.1301C17.8377 12.7043 18.4826 12.4909 19.136 12.5356C19.7895 12.5804 20.3993 12.8798 20.8342 13.3695C21.2692 13.8592 21.4946 14.5 21.4621 15.1542C21.4295 15.8083 21.1415 16.4236 20.66 16.8676L11.5125 25.0001L19.9575 32.5051C20.3369 32.8417 20.6049 33.2858 20.726 33.7784C20.8471 34.2709 20.8154 34.7887 20.6353 35.2628C20.4552 35.737 20.1351 36.1452 19.7176 36.4331C19.3 36.7211 18.8047 36.8752 18.2975 36.8751ZM40.66 36.8701L54.0125 25.0001L41.3625 13.7551C40.8669 13.3148 40.2167 13.0895 39.5549 13.1286C38.8931 13.1678 38.274 13.4682 37.8338 13.9638C37.3935 14.4595 37.1682 15.1097 37.2073 15.7714C37.2464 16.4332 37.5469 17.0523 38.0425 17.4926L46.4875 25.0001L37.34 33.1301C36.8441 33.5703 36.5433 34.1896 36.5039 34.8516C36.4645 35.5136 36.6897 36.1641 37.13 36.6601C37.5703 37.156 38.1895 37.4568 38.8515 37.4962C39.5135 37.5356 40.164 37.3103 40.66 36.8701ZM28.965 40.4126L33.965 10.4126C34.0289 10.0847 34.0265 9.74736 33.9579 9.42044C33.8893 9.09353 33.7558 8.78368 33.5654 8.5092C33.375 8.23473 33.1316 8.00119 32.8494 7.82238C32.5672 7.64358 32.2521 7.52314 31.9226 7.46816C31.5931 7.41319 31.256 7.42481 30.931 7.50233C30.6061 7.57986 30.3 7.72171 30.0309 7.91951C29.7617 8.11731 29.5349 8.36706 29.3638 8.65399C29.1928 8.94092 29.081 9.25922 29.035 9.59008L24.035 39.5901C23.9711 39.9179 23.9735 40.2553 24.0421 40.5822C24.1107 40.9091 24.2442 41.219 24.4346 41.4935C24.625 41.7679 24.8684 42.0015 25.1506 42.1803C25.4328 42.3591 25.7479 42.4795 26.0774 42.5345C26.4069 42.5895 26.744 42.5779 27.069 42.5003C27.3939 42.4228 27.7 42.281 27.9692 42.0832C28.2383 41.8853 28.4651 41.6356 28.6362 41.3487C28.8072 41.0617 28.919 40.7435 28.965 40.4126Z" fill="url(#paint0_linear_201_275)"/>
</g>
<defs>
<filter id="filter0_d_201_275" x="0" y="0" width="58" height="58" filterUnits="userSpaceOnUse" color-interpolation-filters="sRGB">
<feFlood flood-opacity="0" result="BackgroundImageFix"/>
<feColorMatrix in="SourceAlpha" type="matrix" values="0 0 0 0 0 0 0 0 0 0 0 0 0 0 0 0 0 0 127 0" result="hardAlpha"/>
<feOffset dy="4"/>
<feGaussianBlur stdDeviation="2"/>
<feComposite in2="hardAlpha" operator="out"/>
<feColorMatrix type="matrix" values="0 0 0 0 0 0 0 0 0 0 0 0 0 0 0 0 0 0 0.25 0"/>
<feBlend mode="normal" in2="BackgroundImageFix" result="effect1_dropShadow_201_275"/>
<feBlend mode="normal" in="SourceGraphic" in2="effect1_dropShadow_201_275" result="shape"/>
</filter>
<linearGradient id="paint0_linear_201_275" x1="29" y1="7.43408" x2="29" y2="42.5686" gradientUnits="userSpaceOnUse">
<stop stop-color="#9949FF"/>
<stop offset="1" stop-color="#436CFF"/>
</linearGradient>
<clipPath id="clip0_201_275">
<rect width="50" height="50" fill="white" transform="translate(4)"/>
</clipPath>
</defs>
</svg>
