<svg width="50" height="50" viewBox="0 0 50 50" fill="none" xmlns="http://www.w3.org/2000/svg">
<g clip-path="url(#clip0_322_12)">
<path d="M47.5395 34.6774C47.3476 32.3661 46.3444 30.2839 44.8097 28.7177C45.0387 27.4935 45.1613 26.2452 45.1613 25C45.1613 13.8831 36.1169 4.83871 25 4.83871C24.0661 4.83871 23.1153 4.92419 22.1661 5.05887L18.3694 1.2621L16.8629 2.76855C16.3685 2.51613 15.8532 2.30242 15.3226 2.13145V0H8.87097V2.13145C8.34032 2.30242 7.825 2.51613 7.33065 2.76855L5.82419 1.2621L1.2621 5.82419L2.76855 7.33065C2.51532 7.825 2.30242 8.34032 2.13145 8.87097H0V15.3226H2.13145C2.30323 15.8532 2.51613 16.3685 2.76935 16.8629L1.2629 18.3694L5.05968 22.1661C4.92419 23.1169 4.83871 24.0677 4.83871 25C4.83871 36.1169 13.8831 45.1613 25 45.1613C27.5048 45.1613 29.9411 44.704 32.2581 43.8073V45.1613H30.6452V46.7742H32.2581V50H43.5484V46.7742H45.1613V45.1613H43.5484V43.3387C45.8613 41.6758 47.2984 39.1065 47.5323 36.2903H50V34.6774H47.5395ZM3.54355 18.3694L4.77903 17.1331L4.46129 16.5952C4.04194 15.8855 3.725 15.1185 3.51774 14.3145L3.36129 13.7097H1.6129V10.4839H3.36129L3.51774 9.87903C3.725 9.075 4.04194 8.30806 4.46129 7.59839L4.77903 7.06048L3.54355 5.82419L5.82419 3.54274L7.06048 4.77903L7.59919 4.46048C8.30806 4.04194 9.075 3.72419 9.87903 3.51694L10.4839 3.36129V1.6129H13.7097V3.36129L14.3145 3.51694C15.1185 3.72419 15.8855 4.04194 16.5944 4.46048L17.1331 4.77903L18.3694 3.54274L20.65 5.82419L19.4145 7.06048L19.7323 7.59839C20.1516 8.30806 20.4685 9.075 20.6758 9.87903L20.8323 10.4839H22.5806V13.7097H20.8323L20.6758 14.3145C20.4685 15.1185 20.1516 15.8855 19.7323 16.5952L19.4145 17.1331L20.65 18.3694L18.3694 20.6508L17.1331 19.4145L16.5944 19.7331C15.8855 20.1516 15.1185 20.4694 14.3145 20.6766L13.7097 20.8323V22.5806H10.4839V20.8323L9.87903 20.6766C9.075 20.4694 8.30806 20.1516 7.59919 19.7331L7.06048 19.4145L5.82419 20.6508L3.54355 18.3694ZM25 43.5484C14.7718 43.5484 6.45161 35.2274 6.45161 25C6.45161 24.0331 6.54032 23.0444 6.69839 22.0573L7.33065 21.425C7.825 21.6774 8.34032 21.8911 8.87097 22.0621V24.1935H15.3226V22.0621C15.8532 21.8911 16.3685 21.6774 16.8629 21.425L18.3694 22.9315L22.9306 18.3694L21.4242 16.8629C21.6774 16.3685 21.8903 15.8532 22.0621 15.3226H24.1935V8.87097H22.0621C21.8903 8.34032 21.6774 7.825 21.4242 7.33065L22.0565 6.69839C23.0427 6.54032 24.0315 6.45161 25 6.45161C35.2282 6.45161 43.5484 14.7726 43.5484 25C43.5484 25.8379 43.4855 26.6766 43.3726 27.5081C41.8153 26.4371 39.9323 25.8065 37.9032 25.8065C32.8387 25.8065 28.679 29.7185 28.2669 34.6774H25.8065V36.2903H28.2742C28.471 38.6565 29.5194 40.8427 31.2234 42.4685C29.229 43.1815 27.1419 43.5484 25 43.5484ZM41.9355 48.3871H33.871V46.7742H41.9355V48.3871ZM42.3008 42.2379L41.9355 42.4766V45.1613H38.7097V38.5952C40.0976 38.2347 41.129 36.9823 41.129 35.4839C41.129 33.7048 39.6823 32.2581 37.9032 32.2581C36.1242 32.2581 34.6774 33.7048 34.6774 35.4839C34.6774 36.9823 35.7089 38.2347 37.0968 38.5952V45.1613H33.871V42.4766L33.5056 42.2379C31.2089 40.7395 29.8387 38.2145 29.8387 35.4839C29.8387 31.0371 33.4565 27.4194 37.9032 27.4194C42.35 27.4194 45.9677 31.0371 45.9677 35.4839C45.9677 38.2145 44.5976 40.7395 42.3008 42.2379ZM37.9032 37.0968C37.0137 37.0968 36.2903 36.3734 36.2903 35.4839C36.2903 34.5944 37.0137 33.871 37.9032 33.871C38.7927 33.871 39.5161 34.5944 39.5161 35.4839C39.5161 36.3734 38.7927 37.0968 37.9032 37.0968Z" fill="#8500FF"/>
<path d="M38.7097 29.0322H37.0968V30.6451H38.7097V29.0322Z" fill="#8500FF"/>
<path d="M32.7733 31.4877L33.9143 32.6279L35.0546 31.4869L33.9135 30.3467L32.7733 31.4877Z" fill="#8500FF"/>
<path d="M33.0645 34.6772H31.4516V36.2901H33.0645V34.6772Z" fill="#8500FF"/>
<path d="M32.7736 39.4737L33.9138 40.6147L35.0549 39.4745L33.9147 38.3335L32.7736 39.4737Z" fill="#8500FF"/>
<path d="M40.7572 39.475L41.8982 40.6152L43.0384 39.4742L41.8974 38.334L40.7572 39.475Z" fill="#8500FF"/>
<path d="M44.3548 34.6772H42.7419V36.2901H44.3548V34.6772Z" fill="#8500FF"/>
<path d="M43.0392 31.497L41.899 30.356L40.7579 31.4962L41.8981 32.6372L43.0392 31.497Z" fill="#8500FF"/>
<path d="M12.0968 18.5482C15.654 18.5482 18.5484 15.6539 18.5484 12.0966C18.5484 8.53937 15.654 5.64502 12.0968 5.64502C8.53953 5.64502 5.64517 8.53937 5.64517 12.0966C5.64517 15.6539 8.53953 18.5482 12.0968 18.5482ZM7.33066 11.2902C7.45485 10.5571 7.74195 9.8797 8.15646 9.29744L9.24517 10.3853L10.3855 9.24502L9.29678 8.15712C9.87985 7.74179 10.5573 7.4547 11.2903 7.3305V8.87083H12.9032V7.3305C13.6363 7.4547 14.3137 7.74179 14.896 8.15712L13.8073 9.24502L14.9476 10.3853L16.0363 9.29744C16.4516 9.8797 16.7387 10.5571 16.8629 11.2902H15.3226V12.9031H16.8629C16.7387 13.6361 16.4516 14.3136 16.0371 14.8958L14.9484 13.8079L13.8081 14.9482L14.8968 16.0361C14.3137 16.4515 13.6363 16.7386 12.9032 16.8628V15.3224H11.2903V16.8628C10.5573 16.7386 9.87985 16.4515 9.29759 16.0361L10.3863 14.9482L9.24598 13.8079L8.15727 14.8958C7.74195 14.3136 7.45485 13.6361 7.33066 12.9031H8.87098V11.2902H7.33066Z" fill="#8500FF"/>
<path d="M36.7371 22.1483L33.3193 21.0088L32.8089 22.5386L38.2613 24.3556L41.0137 19.7685L39.6306 18.9386L38.1903 21.3394C36.6548 15.7902 31.7476 11.6967 25.8556 11.3306L25.7564 12.9402C31.0879 13.2725 35.5064 17.062 36.7371 22.1483Z" fill="#8500FF"/>
<path d="M13.3565 28.1444L16.575 29.7541L17.2968 28.3113L11.7903 25.5581L8.9863 30.2307L10.3694 31.0605L11.821 28.6412C13.3492 34.2017 18.254 38.3049 24.1444 38.6694L24.2436 37.0597C19.0242 36.7355 14.6823 33.0839 13.3565 28.1444Z" fill="#8500FF"/>
</g>
<defs>
<clipPath id="clip0_322_12">
<rect width="50" height="50" fill="white"/>
</clipPath>
</defs>
</svg>
